# xmcd CD database file
#
# Track frame offsets:
#	183
#	13968
#	29513
#	41280
#	55080
#	68555
#	82610
#	96005
#	113938
#	137644
#	157020
#	177630
#	194205
#	207778
#	221763
#	236310
#	249778
#	264860
#	279723
#	292748
#
# Disc length: 4100 seconds
#
# Revision: 4
# Processed by: cddbd v1.5.2PL0 Copyright (c) Steve Scherf et al.
# Submitted via: CDex 1.70beta2
#
DISCID=17100214
DTITLE=Louis Armstrong - Amstrong 100 ans Jazz CD2
DYEAR=1987
DGENRE=Jazz
TTITLE0=I Want a Little Girl
TTITLE1=Sugar
TTITLE2=Blues for Yesterday
TTITLE3=Blues in the South
TTITLE4=Do You Know What it Means to Miss New Orleans
TTITLE5=Where the Blues Were Born in New Orleans
TTITLE6=Mahogany Hall Stomp
TTITLE7=Ain't Misbehavin'
TTITLE8=Rockin' Chair
TTITLE9=Back O' Town Blues
TTITLE10=Save It, Pretty Mama
TTITLE11=St. James Infirmary
TTITLE12=Jack-Armstrong Blues
TTITLE13=Rockin' Chair
TTITLE14=Someday You'll Be Sorry
TTITLE15=Fifty-Fifty Blues
TTITLE16=A Song Was Born
TTITLE17=Please Stop Playing Those Blues, Boy
TTITLE18=Before Long
TTITLE19=Lovely Weather We're Having
EXTD=YEAR: 1987
EXTT0=
EXTT1=
EXTT2=
EXTT3=
EXTT4=
EXTT5=
EXTT6=
EXTT7=
EXTT8=Concert Version\n
EXTT9=
EXTT10=
EXTT11=
EXTT12=
EXTT13=Studio Version\n
EXTT14=
EXTT15=
EXTT16=
EXTT17=
EXTT18=
EXTT19=
PLAYORDER=
